<?xml version="1.0" encoding="utf-8"?>
<!-- Generator: Adobe Illustrator 26.0.1, SVG Export Plug-In . SVG Version: 6.00 Build 0)  -->
<svg version="1.1" id="Слой_1" xmlns="http://www.w3.org/2000/svg" xmlns:xlink="http://www.w3.org/1999/xlink" x="0px" y="0px"
	 viewBox="0 0 5242.1 2000" style="enable-background:new 0 0 5242.1 2000;" xml:space="preserve">
<style type="text/css">
	.st0{fill:#F9D26D;}
	.st1{fill:#FFFFFF;}
</style>
<path class="st0" d="M224.4,901.4c19.2-111.6,57.8-335.8,249.6-503.2c289.8-253,680.5-158.9,741.9-143
	c61.5,15.9,434.3,112.6,550.4,437.1c80.6,225.4-5.8,439.9-66.1,589.5c-47.2,117.1-100.5,249.3-234.7,354.8
	c-216.9,170.3-480.9,141.8-594.9,129.5c-138.8-15-383.5-41.4-542.3-240.1C154.3,1308.2,201.9,1031.8,224.4,901.4z"/>
<polygon class="st1" points="2786.1,579.3 2536.9,1127.3 2296.7,427.6 2147.8,427.6 2513.4,1459.1 2931.6,579.3 "/>
<polygon class="st1" points="2586.9,427.6 2905,1127.3 3101.2,579.3 3240.4,579.3 2928.5,1459.1 2438.2,427.6 "/>
<rect x="3507.9" y="695.3" class="st1" width="131.4" height="763.8"/>
<rect x="3507.9" y="427.6" class="st1" width="131.4" height="131.4"/>
<rect x="3784.8" y="695.3" class="st1" width="131.4" height="763.8"/>
<path class="st1" d="M3861.9,789.8c-59.7,59.3-72,146.6-52.7,228l15.2,38.9l87.6-51.4c-5.3-45.2-2-94.9,31.1-127.8
	c38.6-38.3,143.4-35.9,190.4-8.7l74.6-100.3C4114.4,694,3944.5,707.8,3861.9,789.8z"/>
<path class="st1" d="M4797.8,1459.1c-113.4,0-201.2-28.8-263.4-86.5c-62.2-57.7-93.3-139.7-93.3-246v-83.7
	c0-110.6,29.9-196.2,89.8-256.7c59.8-60.6,144.1-90.8,252.8-90.8c102.4,0,181.7,34.3,237.9,103s84.3,165,84.3,288.9v48.6h-548.8
	v-117.3h396.7c-4.7-60.1-21.8-107-51.4-140.9s-69.1-50.8-118.8-50.8c-60.1,0-106.9,18.1-140.3,54.4c-33.5,36.3-50.2,87.5-50.2,153.7
	v94.4c0,61.5,17.9,108.7,53.7,141.6c35.8,32.9,86.1,49.3,150.9,49.3c32.4,0,64.5-6,96.4-17.9c31.9-11.9,60.4-28.6,85.4-50.1
	l105.1,95.8c-40.2,35.3-85.4,62.6-135.6,81.9C4898.9,1449.5,4848.5,1459.1,4797.8,1459.1z"/>
</svg>
